<svg xmlns="http://www.w3.org/2000/svg" width="112" height="35" viewBox="0 0 112 35">
  <path fill="#32DFC5" fill-rule="evenodd" d="M83.454,37.468 L83.454,44.138 L87.916,44.138 L87.916,50.256 L83.454,50.256 L83.454,58.812 C83.454,60.4066746 84.2973249,61.204 85.984,61.204 C86.5360028,61.204 87.14933,61.1273341 87.824,60.974 L87.824,66.77 C86.965329,67.1993355 85.7540078,67.414 84.19,67.414 C81.8286549,67.414 79.9656735,66.7546733 78.601,65.436 C77.2363265,64.1173267 76.554,62.3233447 76.554,60.054 L76.554,50.256 L72.506,50.256 L72.506,44.138 L73.656,44.138 C74.8213392,44.138 75.702997,43.7930035 76.301,43.103 C76.899003,42.4129966 77.198,41.5160055 77.198,40.412 L77.198,37.468 L83.454,37.468 Z M106.528412,67 C106.405745,66.4479972 106.344412,65.6813382 106.344412,64.7 C105.792409,65.6200046 104.949084,66.3176643 103.814412,66.793 C102.67974,67.2683357 101.483752,67.506 100.226412,67.506 C97.5277318,67.506 95.4040864,66.6550085 93.855412,64.953 C92.3067376,63.2509915 91.532412,61.1273461 91.532412,58.582 L91.532412,44.138 L98.524412,44.138 L98.524412,57.11 C98.524412,58.2753392 98.8387422,59.2259963 99.467412,59.962 C100.096082,60.6980037 101.008406,61.066 102.204412,61.066 C103.369751,61.066 104.297409,60.7056703 104.987412,59.985 C105.677415,59.2643297 106.022412,58.3213392 106.022412,57.156 L106.022412,44.138 L113.014412,44.138 L113.014412,62.906 C113.014412,64.4086742 113.091078,65.7733272 113.244412,67 L106.528412,67 Z M132.408824,44.138 L132.408824,51.038 C131.764821,50.8846659 131.028828,50.808 130.200824,50.808 C128.636816,50.808 127.356496,51.3139949 126.359824,52.326 C125.363152,53.3380051 124.864824,54.9019894 124.864824,57.018 L124.864824,67 L117.872824,67 L117.872824,44.138 L124.634824,44.138 L124.634824,47.22 C125.186827,46.0546608 126.030152,45.2113359 127.164824,44.69 C128.299496,44.1686641 129.434152,43.908 130.568824,43.908 C131.274161,43.908 131.887488,43.9846659 132.408824,44.138 Z M144.443236,37.468 L144.443236,44.138 L148.905236,44.138 L148.905236,50.256 L144.443236,50.256 L144.443236,58.812 C144.443236,60.4066746 145.286561,61.204 146.973236,61.204 C147.525239,61.204 148.138566,61.1273341 148.813236,60.974 L148.813236,66.77 C147.954565,67.1993355 146.743244,67.414 145.179236,67.414 C142.817891,67.414 140.954909,66.7546733 139.590236,65.436 C138.225562,64.1173267 137.543236,62.3233447 137.543236,60.054 L137.543236,50.256 L133.495236,50.256 L133.495236,44.138 L134.645236,44.138 C135.810575,44.138 136.692233,43.7930035 137.290236,43.103 C137.888239,42.4129966 138.187236,41.5160055 138.187236,40.412 L138.187236,37.468 L144.443236,37.468 Z M157.857648,67 L150.865648,67 L150.865648,33.696 L157.857648,33.696 L157.857648,67 Z M168.00606,52.832 L177.16006,52.832 C177.098726,51.7893281 176.692397,50.8846705 175.94106,50.118 C175.189723,49.3513295 174.062734,48.968 172.56006,48.968 C171.21072,48.968 170.137397,49.3666627 169.34006,50.164 C168.542723,50.9613373 168.09806,51.8506618 168.00606,52.832 Z M177.66606,58.766 L183.50806,60.422 C182.92539,62.5380106 181.714069,64.2783265 179.87406,65.643 C178.034051,67.0076735 175.734074,67.69 172.97406,67.69 C169.662043,67.69 166.848405,66.586011 164.53306,64.378 C162.217715,62.169989 161.06006,59.2106852 161.06006,55.5 C161.06006,51.9426489 162.187049,49.0446779 164.44106,46.806 C166.695071,44.5673221 169.370711,43.448 172.46806,43.448 C176.025411,43.448 178.823716,44.4829897 180.86306,46.553 C182.902403,48.6230104 183.92206,51.4979816 183.92206,55.178 C183.92206,56.3433392 183.87606,57.0639986 183.78406,57.34 L167.86806,57.34 C167.929394,58.5973396 168.466055,59.6476624 169.47806,60.491 C170.490065,61.3343376 171.686053,61.756 173.06606,61.756 C175.427405,61.756 176.960723,60.7593433 177.66606,58.766 Z" transform="translate(-72 -33)"/>
</svg>
